<?xml version="1.0" standalone="no"?>
<!DOCTYPE svg PUBLIC "-//W3C//DTD SVG 20010904//EN"
 "http://www.w3.org/TR/2001/REC-SVG-20010904/DTD/svg10.dtd">
<svg version="1.0" xmlns="http://www.w3.org/2000/svg"
 width="700.000000pt" height="700.000000pt" viewBox="0 0 700.000000 700.000000"
 preserveAspectRatio="xMidYMid meet">
<metadata>
Created by potrace 1.11, written by Peter Selinger 2001-2013
</metadata>
<g transform="translate(0.000000,700.000000) scale(0.100000,-0.100000)"
fill="#000000" stroke="none">
<path d="M3030 6978 c-94 -10 -185 -53 -235 -110 -112 -131 -67 -353 90 -443
22 -12 90 -39 151 -60 l110 -38 13 -41 c17 -60 27 -74 43 -58 17 17 25 15 31
-9 3 -12 10 -18 17 -14 7 4 9 -1 6 -17 -24 -109 -39 -218 -40 -296 -1 -78 -4
-93 -18 -98 -37 -12 -88 39 -88 89 0 15 7 60 15 100 28 140 21 171 -61 253
-53 53 -113 69 -233 61 -90 -6 -242 -40 -276 -63 -11 -7 -76 -33 -145 -57
-227 -81 -317 -121 -435 -192 -22 -14 -104 -52 -181 -86 -78 -33 -152 -70
-163 -80 -12 -11 -45 -31 -74 -44 -86 -38 -535 -215 -545 -215 -6 0 -50 -12
-98 -26 -49 -14 -96 -27 -104 -29 -8 -2 -41 -15 -74 -29 -51 -24 -57 -29 -52
-50 4 -15 0 -28 -9 -36 -19 -16 -19 -54 -1 -69 22 -18 104 -60 109 -55 2 2 10
-2 17 -11 7 -8 19 -15 28 -15 8 0 24 -7 34 -17 12 -11 33 -16 62 -15 25 1 47
-2 50 -7 3 -5 30 -21 60 -35 49 -24 65 -27 143 -24 67 2 94 -2 113 -14 46 -29
178 -30 325 -2 116 22 267 58 300 71 7 2 15 -7 19 -22 6 -23 11 -26 36 -23 16
2 27 2 25 -2 -2 -3 0 -11 4 -18 6 -9 30 -7 102 12 52 14 114 32 139 42 62 23
123 27 116 8 -3 -9 1 -14 14 -14 10 0 23 -6 27 -14 12 -19 35 -25 57 -14 16 9
18 7 14 -10 -5 -19 -3 -20 21 -10 40 16 130 17 124 2 -7 -19 11 -24 46 -14 23
6 31 5 31 -4 0 -8 10 -11 30 -8 23 3 30 0 30 -12 0 -18 31 -21 60 -6 15 8 17
6 13 -10 -5 -18 -1 -20 31 -16 30 4 36 2 36 -14 0 -16 4 -17 32 -9 22 6 34 5
39 -2 4 -7 21 -10 38 -7 25 4 31 1 31 -13 0 -19 22 -19 59 0 30 16 50 -9 44
-56 -4 -33 -22 -55 -144 -176 -147 -146 -207 -218 -233 -280 l-15 -38 30 -17
c22 -13 28 -22 25 -38 -7 -25 19 -64 41 -64 9 0 24 -7 34 -16 16 -15 13 -18
-54 -53 -113 -59 -177 -101 -177 -117 0 -8 -10 -14 -23 -14 -61 0 -425 -353
-402 -390 4 -7 -2 -14 -14 -17 -35 -9 -148 -195 -217 -356 -19 -44 -33 -85
-31 -91 3 -6 -1 -18 -8 -26 -12 -14 -41 -95 -49 -136 -16 -81 -27 -116 -33
-110 -10 9 -61 -26 -74 -51 -7 -13 -12 -40 -12 -59 1 -28 -3 -35 -22 -40 -13
-3 -31 -14 -40 -24 -21 -24 -35 -83 -24 -103 7 -12 2 -18 -24 -26 -19 -7 -44
-22 -57 -36 -29 -31 -32 -96 -5 -125 20 -22 20 -22 -13 -39 -35 -19 -53 -70
-41 -115 5 -19 19 -41 30 -46 19 -11 19 -11 -4 -43 -35 -46 -25 -120 19 -145
13 -7 13 -13 3 -35 -7 -15 -19 -27 -27 -27 -41 0 -202 126 -261 204 -20 27
-20 31 -6 52 8 13 15 37 15 54 0 20 5 30 15 30 49 0 92 66 81 124 -6 29 -3 35
13 41 55 17 82 117 42 152 -19 15 -19 16 4 39 32 32 39 74 21 118 -8 20 -20
36 -26 36 -7 0 -9 12 -4 35 8 47 0 77 -32 109 -15 14 -25 29 -22 31 3 3 45
-33 94 -81 89 -85 132 -120 138 -113 2 2 25 74 51 159 110 358 249 629 414
810 28 30 50 58 51 61 0 3 -19 16 -42 29 -38 22 -55 25 -153 25 -60 0 -135 -4
-165 -9 -30 -4 -70 -10 -88 -12 -193 -24 -394 -103 -576 -227 -241 -164 -335
-261 -371 -384 -7 -26 -1 -27 157 -24 l87 1 -31 -50 c-37 -60 -47 -68 -62 -48
-6 8 -20 19 -31 25 -40 21 -122 -8 -132 -47 -4 -14 -12 -17 -41 -13 -65 8
-120 -30 -125 -86 -1 -14 -8 -21 -22 -21 -28 0 -62 -25 -80 -61 -17 -32 -17
-36 -4 -61 8 -15 6 -18 -12 -18 -11 0 -35 -15 -51 -32 -27 -29 -30 -37 -25
-78 5 -39 2 -49 -19 -69 -31 -30 -40 -67 -25 -105 7 -21 8 -32 1 -34 -15 -5
-40 -57 -40 -84 0 -13 7 -34 16 -46 14 -20 14 -24 0 -44 -32 -45 -12 -118 32
-118 11 0 7 -8 -15 -30 -36 -35 -46 -80 -26 -118 18 -34 33 -43 58 -35 17 5
18 4 7 -10 -43 -52 -8 -157 53 -157 21 0 21 -3 13 -48 -21 -117 -21 -116 1
-139 20 -21 20 -25 7 -45 -28 -44 -20 -120 15 -138 18 -10 18 -13 4 -34 -15
-22 -15 -49 0 -95 3 -11 19 -25 35 -32 23 -11 27 -16 19 -31 -13 -24 -6 -68
16 -102 19 -28 17 -33 -30 -81 -28 -30 -61 -93 -52 -102 4 -4 51 -6 103 -6 83
2 95 0 90 -14 -17 -44 34 -123 79 -123 10 0 15 -10 15 -32 0 -45 43 -98 81
-98 26 0 29 -3 29 -31 0 -63 47 -110 103 -102 16 2 26 0 23 -5 -10 -17 14 -68
42 -89 19 -14 39 -20 65 -17 31 2 37 0 37 -16 0 -10 14 -30 32 -45 25 -21 40
-26 69 -23 31 3 40 0 48 -19 21 -45 93 -73 126 -49 17 12 22 11 45 -16 34 -39
98 -50 127 -21 20 20 20 20 47 -4 38 -32 100 -32 129 1 20 23 22 23 54 8 27
-13 39 -13 73 -3 22 6 40 16 40 21 0 14 17 12 53 -4 97 -44 325 -118 405 -132
15 -3 34 -7 42 -9 8 -2 38 -7 65 -11 28 -3 59 -8 70 -10 11 -2 67 -5 123 -5
l104 -1 -7 -82 c-3 -44 -10 -110 -15 -146 -14 -95 -13 -99 13 -95 12 1 72 19
132 40 337 115 636 354 920 735 26 36 56 72 65 80 9 8 20 23 23 32 6 16 0 17
-46 13 -29 -3 -77 -7 -107 -10 -331 -30 -669 -24 -845 15 -22 5 -53 11 -68 14
-52 9 -142 38 -177 56 -19 10 -45 21 -57 23 -19 4 -21 2 -13 -13 5 -9 7 -20 4
-23 -3 -3 4 -10 15 -16 40 -22 118 -175 145 -285 l7 -29 -69 6 c-144 13 -259
46 -395 113 -57 28 -78 44 -59 44 29 0 35 101 8 128 -13 14 -12 19 11 46 21
25 24 37 20 75 -3 26 -12 50 -22 58 -15 10 -16 15 -6 27 31 37 13 146 -23 146
-12 0 -14 5 -7 23 15 38 3 90 -25 115 -20 18 -27 33 -28 67 -2 48 -35 95 -67
95 -15 0 -17 4 -10 22 9 25 -1 71 -20 95 -10 12 -10 16 2 24 21 13 39 11 39
-6 0 -8 4 -15 8 -15 5 0 40 -41 77 -92 69 -92 238 -268 258 -268 6 0 7 -3 4
-6 -12 -12 12 -42 38 -48 14 -4 53 -26 86 -51 68 -50 210 -132 284 -165 28
-12 59 -26 70 -31 88 -38 279 -93 370 -105 28 -3 53 -8 57 -10 26 -16 245 -21
400 -9 292 21 665 160 893 330 33 25 65 45 72 45 7 0 17 10 24 21 6 12 27 35
47 53 106 93 302 328 302 363 0 8 9 22 20 31 22 19 89 143 132 247 40 95 89
260 108 360 20 110 25 179 24 335 -1 170 -7 242 -30 340 -25 103 -26 117 -12
117 7 0 18 2 23 4 6 2 10 1 10 -2 0 -13 40 -51 67 -65 29 -15 52 -14 82 3 18
10 26 0 85 -91 42 -64 67 -115 71 -141 4 -30 13 -44 39 -62 41 -28 61 -54 67
-91 6 -35 31 -54 65 -48 18 3 49 -9 100 -39 86 -50 55 -59 247 73 l124 84 -5
62 c-3 51 -1 65 16 83 33 37 25 72 -26 116 -41 34 -45 41 -36 63 12 33 -19 76
-73 101 -44 20 -57 47 -34 72 9 10 16 29 16 43 0 21 6 28 30 33 34 7 80 57 80
86 0 11 -4 28 -10 38 -7 14 -4 21 15 31 13 7 27 20 31 29 20 49 21 71 8 97 -8
15 -13 28 -12 29 2 1 34 16 72 34 171 81 286 271 282 461 -4 137 -55 254 -156
352 -95 92 -207 139 -341 143 -67 1 -81 5 -109 28 -35 30 -84 36 -115 13 -16
-12 -24 -12 -51 2 -48 22 -91 3 -101 -47 -4 -20 -6 -40 -5 -44 2 -8 -6 -12
-51 -21 -31 -7 -44 -33 -52 -104 -7 -72 -9 -142 -3 -147 3 -3 -3 -34 -12 -68
-17 -63 -19 -138 -6 -214 5 -25 4 -43 -1 -43 -5 0 -71 96 -146 214 -122 192
-136 217 -135 257 0 35 -5 47 -27 67 -15 13 -34 21 -41 18 -14 -5 -44 40 -44
67 0 27 -40 57 -75 57 -23 0 -57 14 -100 40 -63 39 -67 40 -95 25 -49 -26
-260 -175 -261 -186 0 -5 0 -37 -1 -71 0 -42 -5 -69 -15 -80 -27 -31 -19 -67
26 -110 41 -40 45 -48 42 -80 -3 -29 19 -59 53 -73 41 -18 116 -132 95 -146
-14 -8 -32 9 -23 23 6 10 -15 49 -35 66 -28 22 -60 32 -82 24 -16 -6 -28 -1
-55 26 -29 29 -40 33 -73 31 -30 -2 -46 2 -63 18 -35 32 -62 42 -94 37 -19 -3
-45 4 -73 18 -36 19 -44 29 -47 56 -4 35 -1 37 45 21 44 -15 64 2 55 47 -5 29
-3 34 12 34 11 0 25 9 32 20 10 17 6 30 -30 92 -32 54 -85 115 -201 230 -142
142 -157 161 -155 189 1 18 12 38 25 49 13 10 23 25 23 34 0 19 17 20 50 3 51
-27 70 -27 76 -2 3 13 1 32 -5 43 -6 12 -11 23 -11 26 0 3 32 -10 72 -29 40
-19 76 -31 81 -26 4 4 -3 30 -17 57 -14 27 -23 50 -22 52 2 1 29 -12 61 -29
32 -18 73 -35 92 -39 30 -7 33 -6 28 14 -3 11 -8 33 -11 49 -4 15 -5 27 -2 27
2 0 30 -13 63 -30 33 -16 66 -30 74 -30 14 0 12 25 -4 63 -7 16 1 14 51 -11
32 -16 71 -32 86 -36 25 -6 26 -4 22 21 -3 15 -10 33 -16 40 -19 24 2 28 51
10 70 -24 83 -23 71 8 -13 33 -1 33 91 -6 41 -16 116 -41 168 -55 110 -30 126
-24 97 31 -11 19 -16 38 -13 41 3 4 88 -14 189 -39 279 -69 348 -79 457 -67
48 5 79 14 86 23 9 13 28 15 106 10 77 -5 101 -3 127 11 18 9 32 23 32 31 0
11 14 15 58 16 76 1 105 10 117 37 6 13 19 22 31 22 34 0 82 20 88 37 4 9 -1
24 -10 34 -11 12 -14 27 -10 43 5 19 1 26 -13 31 -12 4 -17 13 -14 28 3 19 -4
25 -54 44 -32 12 -119 38 -193 58 -74 20 -157 49 -185 64 -27 16 -81 40 -120
56 -77 30 -272 118 -380 172 -38 19 -122 57 -185 85 -63 27 -154 71 -201 98
-86 50 -219 106 -379 162 -47 16 -116 43 -155 58 -156 64 -339 88 -446 60 -40
-11 -108 -78 -110 -108 -1 -9 -3 -33 -4 -52 -2 -19 4 -70 12 -113 17 -95 12
-123 -32 -175 -35 -41 -85 -60 -124 -47 -26 8 -57 95 -86 238 -4 19 -26 164
-27 182 -3 31 -90 154 -135 191 -91 74 -254 109 -368 79 -28 -8 -73 -16 -100
-19 -27 -4 -67 -15 -89 -26 -35 -17 -43 -18 -61 -6 -12 8 -44 21 -72 29 -27 8
-68 24 -91 36 -86 44 -125 173 -72 234 28 32 96 56 170 59 64 3 210 -20 210
-34 0 -5 4 -7 9 -4 5 3 69 -3 143 -14 289 -42 442 -46 713 -15 33 4 62 8 65
10 3 2 25 6 50 10 25 4 48 9 52 11 4 3 24 -6 45 -19 83 -52 176 -62 247 -27
41 20 91 79 114 134 11 24 11 28 -3 23 -18 -7 -20 4 -3 21 20 20 1 25 -33 8
-41 -20 -39 -21 -39 9 0 14 -5 25 -11 25 -6 0 -9 9 -6 20 9 35 -8 30 -59 -15
-27 -25 -53 -45 -59 -45 -5 0 -23 18 -40 40 -40 56 -69 61 -173 33 -154 -41
-225 -48 -477 -48 -182 0 -347 9 -364 20 -4 1 -35 6 -71 10 -36 4 -83 11 -106
15 -22 5 -69 12 -105 15 -35 4 -73 7 -84 9 -11 1 -54 -1 -95 -6z m373 -908
c-7 -44 -24 -100 -30 -100 -5 0 2 91 11 135 3 11 5 25 6 30 4 22 17 -42 13
-65z m3005 -1723 l22 -24 -34 1 c-31 1 -32 3 -23 24 6 12 11 22 12 22 1 0 11
-10 23 -23z m-228 -21 c0 -2 -7 -9 -15 -16 -12 -10 -15 -10 -15 4 0 9 7 16 15
16 8 0 15 -2 15 -4z m303 -178 c-2 -4 -10 -5 -19 -1 -8 3 -12 11 -9 17 3 6 8
20 12 31 6 17 8 16 13 -10 4 -16 5 -33 3 -37z m-477 -472 c27 -10 56 -20 64
-22 12 -4 12 -7 1 -13 -7 -5 -14 -23 -16 -40 -1 -23 -11 -37 -37 -55 l-35 -23
-28 46 c-16 25 -50 78 -76 118 -26 39 -45 74 -42 77 3 2 31 -12 63 -33 31 -20
79 -45 106 -55z m-5181 -703 c-13 -43 -35 -142 -50 -228 -10 -58 -19 -201 -19
-312 -1 -62 -4 -113 -8 -113 -12 0 -38 -57 -38 -84 0 -23 -3 -25 -45 -23 -25
1 -45 5 -45 10 0 5 -7 24 -16 43 -9 19 -14 44 -11 55 3 12 1 32 -4 46 -6 17
-5 32 6 53 20 39 19 97 -1 108 -14 8 -14 12 4 42 20 33 21 73 1 96 -7 9 -5 15
6 21 22 13 48 90 36 110 -7 13 -3 22 15 35 13 11 29 36 35 58 7 24 21 42 36
49 13 6 32 24 41 41 9 16 26 31 37 33 11 2 23 5 27 6 4 0 1 -20 -7 -46z m430
-182 c1 -48 -3 -61 -19 -71 -18 -11 -18 -10 -12 21 8 41 26 109 29 109 1 0 2
-27 2 -59z m586 -203 c1 -7 2 -26 4 -43 3 -37 16 -142 21 -170 8 -46 26 -121
32 -135 15 -39 11 -61 -14 -70 -37 -15 -44 -12 -44 13 0 24 -25 67 -48 81 -8
4 -10 11 -5 15 23 16 31 57 18 96 -8 21 -18 41 -24 44 -7 4 -3 13 9 23 27 24
35 80 17 117 -14 27 -13 30 2 34 28 8 31 7 32 -5z m-1053 -594 c-4 -3 -12 5
-18 18 -12 22 -12 22 6 6 10 -10 15 -20 12 -24z m-9 -144 c-20 -142 -36 -222
-38 -184 -1 12 -10 33 -22 47 -16 22 -18 30 -9 47 6 12 9 26 7 33 -2 7 0 21 6
32 19 37 58 97 62 93 1 -1 -1 -32 -6 -68z m1084 -349 c3 -16 18 -37 34 -47 23
-16 28 -27 30 -64 2 -32 9 -51 25 -65 17 -15 22 -29 20 -53 -2 -20 4 -44 15
-60 11 -17 18 -47 19 -80 1 -33 7 -59 16 -69 14 -13 14 -18 1 -45 l-15 -30
-34 48 c-84 118 -132 266 -132 407 0 86 10 114 21 58z m-699 -445 c33 -24 90
-72 126 -106 36 -34 95 -87 133 -117 37 -30 67 -59 67 -63 0 -21 -38 -14 -68
12 -22 19 -44 28 -68 28 -27 0 -37 5 -45 24 -12 24 -67 56 -99 56 -10 0 -21 9
-25 20 -9 27 -53 60 -81 60 -13 0 -23 3 -22 8 7 23 -24 73 -54 88 -27 12 -33
22 -35 50 l-3 34 56 -25 c31 -14 84 -45 118 -69z"/>
</g>
</svg>
